<svg width="128" height="60" viewBox="0 0 128 60" fill="none" xmlns="http://www.w3.org/2000/svg">
<g filter="url(#filter0_d)">
<rect x="14" y="11" width="100" height="32" rx="16" fill="white"/>
</g>
<path d="M26.8374 31.5L27.7053 28.9979H31.3984L32.2617 31.5H33.7759L30.3736 22.0455H28.7255L25.3232 31.5H26.8374ZM28.1207 27.7976L29.5149 23.7628H29.5888L30.983 27.7976H28.1207ZM35.0305 31.5H36.4108V28.6655H37.3064L39.4438 31.5H41.1565L38.3774 27.8576L41.1242 24.4091H39.4161L37.0756 27.3821H36.4108V24.4091H35.0305V31.5ZM42.2287 31.5H43.609V28.6655H44.5046L46.642 31.5H48.3548L45.5756 27.8576L48.3224 24.4091H46.6143L44.2738 27.3821H43.609V24.4091H42.2287V31.5ZM51.4905 31.657C52.6631 31.657 53.3232 31.0614 53.5864 30.5305H53.6418V31.5H54.9898V26.7912C54.9898 24.7276 53.3648 24.3168 52.2384 24.3168C50.955 24.3168 49.7732 24.8338 49.3115 26.1264L50.6088 26.4219C50.8119 25.9187 51.3289 25.4339 52.2568 25.4339C53.1478 25.4339 53.6048 25.9002 53.6048 26.7035V26.7358C53.6048 27.239 53.0878 27.2298 51.8137 27.3775C50.4703 27.5344 49.0945 27.8853 49.0945 29.4964C49.0945 30.8906 50.1425 31.657 51.4905 31.657ZM51.7906 30.549C51.0104 30.549 50.4472 30.1982 50.4472 29.5149C50.4472 28.7763 51.1027 28.5131 51.9014 28.407C52.3492 28.3469 53.411 28.2269 53.6095 28.0284V28.9425C53.6095 29.7827 52.9401 30.549 51.7906 30.549ZM57.4469 34.1591C58.5872 34.1591 59.3074 33.5636 59.7182 32.4464L62.6497 24.4229L61.1586 24.4091L59.3627 29.9119H59.2889L57.4931 24.4091H56.0158L58.6103 31.5923L58.4395 32.0632C58.0886 33.005 57.5946 33.0835 56.8375 32.8757L56.5051 34.0067C56.6713 34.0806 57.0314 34.1591 57.4469 34.1591ZM65.303 24.4091H63.9504V31.5H65.303V28.5547H68.373V31.5H69.721V24.4091H68.373V27.359H65.303V24.4091ZM70.6881 25.6001H73.0102V31.5H74.3582V25.6001H76.6711V24.4091H70.6881V25.6001Z" fill="black"/>
<rect x="85" y="14" width="26" height="26" rx="13" fill="#F9F9F9"/>
<path d="M99.2391 28.5056L98 29.017L96.761 28.5056C95.5798 28.018 94.7501 26.8553 94.7501 25.5C94.7501 23.7051 96.2052 22.25 98.0001 22.25C99.795 22.25 101.25 23.7051 101.25 25.5C101.25 26.8554 100.42 28.0181 99.2391 28.5056ZM96.6523 29.461L98 29.2366L99.3477 29.461C100.49 29.6512 101.552 30.0791 102.482 30.6922L101.699 31.7339C100.633 31.0478 99.3634 30.65 97.9999 30.65C96.6363 30.65 95.3671 31.0478 94.3002 31.7339L93.5176 30.6922C94.4473 30.079 95.5101 29.6511 96.6523 29.461Z" fill="black"/>
<path d="M99.2391 28.5056L98 29.017L96.761 28.5056C95.5798 28.018 94.7501 26.8553 94.7501 25.5C94.7501 23.7051 96.2052 22.25 98.0001 22.25C99.795 22.25 101.25 23.7051 101.25 25.5C101.25 26.8554 100.42 28.0181 99.2391 28.5056ZM96.6523 29.461L98 29.2366L99.3477 29.461C100.49 29.6512 101.552 30.0791 102.482 30.6922L101.699 31.7339C100.633 31.0478 99.3634 30.65 97.9999 30.65C96.6363 30.65 95.3671 31.0478 94.3002 31.7339L93.5176 30.6922C94.4473 30.079 95.5101 29.6511 96.6523 29.461Z" stroke="black"/>
<path d="M99.2391 28.5056L98 29.017L96.761 28.5056C95.5798 28.018 94.7501 26.8553 94.7501 25.5C94.7501 23.7051 96.2052 22.25 98.0001 22.25C99.795 22.25 101.25 23.7051 101.25 25.5C101.25 26.8554 100.42 28.0181 99.2391 28.5056ZM96.6523 29.461L98 29.2366L99.3477 29.461C100.49 29.6512 101.552 30.0791 102.482 30.6922L101.699 31.7339C100.633 31.0478 99.3634 30.65 97.9999 30.65C96.6363 30.65 95.3671 31.0478 94.3002 31.7339L93.5176 30.6922C94.4473 30.079 95.5101 29.6511 96.6523 29.461Z" stroke="url(#paint0_linear)"/>
<defs>
<filter id="filter0_d" x="0" y="0" width="128" height="60" filterUnits="userSpaceOnUse" color-interpolation-filters="sRGB">
<feFlood flood-opacity="0" result="BackgroundImageFix"/>
<feColorMatrix in="SourceAlpha" type="matrix" values="0 0 0 0 0 0 0 0 0 0 0 0 0 0 0 0 0 0 127 0"/>
<feOffset dy="3"/>
<feGaussianBlur stdDeviation="7"/>
<feColorMatrix type="matrix" values="0 0 0 0 0 0 0 0 0 0 0 0 0 0 0 0 0 0 0.08 0"/>
<feBlend mode="normal" in2="BackgroundImageFix" result="effect1_dropShadow"/>
<feBlend mode="normal" in="SourceGraphic" in2="effect1_dropShadow" result="shape"/>
</filter>
<linearGradient id="paint0_linear" x1="97.9999" y1="21.75" x2="97.9999" y2="32.4194" gradientUnits="userSpaceOnUse">
<stop stop-color="white"/>
<stop offset="1" stop-color="white" stop-opacity="0"/>
</linearGradient>
</defs>
</svg>
